Coordinates
version=1
nRows=10
nColumns=34
inDegrees=yes

Units are S.I. units (second, meters, Newtons, ...)
If the header above contains a line with 'inDegrees', this indicates whether rotational values are in degrees (yes) or radians (no).

endheader
time	pelvis_tilt	pelvis_list	pelvis_rotation	pelvis_tx	pelvis_ty	pelvis_tz	hip_flexion_r	hip_adduction_r	hip_rotation_r	knee_angle_r	ankle_angle_r	subtalar_angle_r	mtp_angle_r	hip_flexion_l	hip_adduction_l	hip_rotation_l	knee_angle_l	ankle_angle_l	subtalar_angle_l	mtp_angle_l	lumbar_extension	lumbar_bending	lumbar_rotation	arm_flex_r	arm_add_r	arm_rot_r	elbow_flex_r	pro_sup_r	arm_flex_l	arm_add_l	arm_rot_l	elbow_flex_l	pro_sup_l
      0.00000000	      1.40622112	      0.59174902	      2.07142555	      0.12133894	      0.93748573	     -0.06673133	     -5.17395155	     -1.54992617	     -0.51428348	      2.13819305	      7.28451556	     -4.01884441	      0.00000000	     -4.62955255	     -3.99746306	     -3.85638551	      0.00000000	      9.34318115	      0.64480869	      0.00000000	     -4.54694623	      1.20558544	     -3.16562483	      8.74334576	     -7.74624346	     34.60850532	    110.88135988	    103.42546984	      1.99541778	     -9.44704090	     24.48120327	    116.45065015	    104.38668495
      0.01666670	      0.90386680	      0.43636258	      1.93290123	      0.12189310	      0.93713164	     -0.06729492	     -5.21153361	     -1.11755018	     -0.54413317	      1.05414024	      8.66862612	     -1.70349736	      0.00000000	     -4.12990830	     -3.99998140	     -3.22364374	      0.00000000	      9.45914318	      1.43627478	      0.00000000	     -3.28895267	      1.73178544	     -1.53403726	      7.10819060	     -8.51546966	     33.76427118	    111.65749104	    102.08023871	      2.54243146	     -9.28094682	     26.13310228	    115.70507906	    101.79444106
      0.03333330	      0.73687253	      0.57516611	      1.91784210	      0.11969458	      0.93465292	     -0.06745075	     -5.26931087	     -1.08925989	     -0.97190734	      0.37287138	      8.43504436	     -2.25955367	      0.00000000	     -3.85486834	     -3.84395407	     -3.86456768	      0.00000000	      9.33699748	      1.17825880	      0.00000000	     -3.11202280	      1.47349291	     -1.43192592	      6.48277603	     -8.82623908	     34.42880963	    111.93205959	    102.07042086	      2.85936862	     -9.03729595	     26.02192088	    115.76148127	    101.58398128
      0.05000000	      0.42014911	      0.72851284	      1.81228743	      0.12013142	      0.93560081	     -0.06773054	     -4.95034858	     -1.32275332	      0.54127489	      0.00000000	      7.29488287	     -4.63925462	      0.00000000	     -3.50067467	     -3.61681122	     -3.70961647	      0.00000000	      9.21880920	      0.80704508	      0.00000000	     -2.99108918	      1.33820458	     -0.74464548	      6.26184270	     -9.59699896	     36.28092416	    112.58136254	    101.43297491	      3.25944832	     -8.72999215	     26.98996637	    115.02687731	     98.17764130
      0.06666670	      0.47707882	      0.72190941	      1.80545065	      0.11850003	      0.93629500	     -0.06754503	     -4.90778452	     -1.33585458	      0.53836705	      0.00000000	      7.29644109	     -4.64066704	      0.00000000	     -3.48320107	     -3.61132076	     -3.70931763	      0.00000000	      9.22693965	      0.80506701	      0.00000000	     -2.98474569	      1.34144271	     -0.74605110	      6.25416685	     -9.59562955	     36.28877391	    112.58184411	    101.43227969	      3.26786050	     -8.72008108	     26.99018972	    115.03238280	     98.17324508
      0.08333330	      0.05080449	      0.85504174	      1.60131643	      0.12041504	      0.93467896	     -0.06743754	     -4.41477674	     -1.55396863	      0.82054620	      0.00000000	      7.44279201	     -4.80947311	      0.00000000	     -3.08728617	     -3.38168108	     -3.43440400	      0.00000000	      9.99266945	      0.67471268	      0.00000000	     -2.50576039	      1.26728421	     -0.16571218	      5.94164008	     -9.86208324	     37.17904100	    112.75685807	    101.22969554	      3.52094997	     -8.38694735	     27.17490364	    115.62904193	     97.22019005
      0.10000000	     -0.00389037	      0.90191837	      1.46935528	      0.12085256	      0.93515867	     -0.06686068	     -4.36776666	     -1.62088579	      0.89394250	      0.00000000	      7.49725330	     -4.82494463	      0.00000000	     -3.07079221	     -3.30381735	     -3.26585438	      0.00000000	      9.99428835	      0.75485346	      0.00000000	     -2.35189565	      1.32044939	     -0.07064538	      6.06551513	     -9.72859314	     37.12979725	    112.76707840	    101.19472940	      3.60455889	     -8.40752494	     27.16905083	    115.78268230	     97.10460092
      0.11666670	     -0.13973954	      0.92099360	      1.38574107	      0.12099861	      0.93365572	     -0.06629881	     -4.28003148	     -1.62158393	      1.16793238	      0.00000000	      7.61090682	     -4.82104141	      0.00000000	     -2.96985621	     -3.29427158	     -2.84674268	      0.00000000	     10.10216882	      0.91537910	      0.00000000	     -2.18510367	      1.24710235	      0.22677621	      6.26477206	     -9.60142715	     36.95019977	    112.70175349	    101.12495096	      3.66794253	     -8.61297479	     27.09186107	    116.13235075	     96.88490330
      0.13333330	     -0.89544083	      1.01631115	      1.20707067	      0.11896730	      0.92926016	     -0.06505349	     -3.39164714	     -1.68248006	      2.77692555	      0.00000000	      6.89928817	     -7.68687699	      0.00000000	     -2.16118673	     -3.17932764	     -2.33677202	      0.00000000	     10.23792019	     -0.17368526	      0.00000000	     -1.26451650	      1.08859928	      0.69945914	      5.65394603	     -9.30567067	     36.03298995	    112.77045066	     97.57631071	      3.87385283	     -8.74257618	     27.86861405	    116.54813712	     83.04274419
      0.15000000	     -0.90315942	      1.02416345	      0.98403176	      0.11980930	      0.92985370	     -0.06500283	     -3.33292654	     -1.66607600	      2.77068094	      0.00000000	      6.93044369	     -7.63097822	      0.00000000	     -2.19783478	     -3.20881241	     -2.17569185	      0.00000000	     10.18994582	     -0.06268466	      0.00000000	     -1.25415192	      1.06817732	      0.76166087	      5.72234142	     -9.27947444	     36.01734731	    112.80367728	     97.57001498	      3.96020063	     -8.87727580	     27.81518633	    116.61898860	     83.01483136
